<?xml version="1.0" encoding="utf-8"?>
<!-- Generator: Adobe Illustrator 22.0.1, SVG Export Plug-In . SVG Version: 6.00 Build 0)  -->
<svg version="1.1" id="Layer_1" xmlns="http://www.w3.org/2000/svg" xmlns:xlink="http://www.w3.org/1999/xlink" x="0px" y="0px"
	 viewBox="0 0 220.2 182.1" style="enable-background:new 0 0 220.2 182.1;" xml:space="preserve">
<path d="M29.8,0.4h4.8c0.5,0,0.9,0,1.1,0.1c0.2,0,0.4,0.2,0.6,0.5c0.2,0.3,0.2,0.7,0.2,1.3L22.7,74.8c-0.1,0.8-0.4,1.3-0.7,1.6
	c-0.3,0.3-0.9,0.4-1.7,0.4h-4.1c-0.9,0-1.5-0.1-1.7-0.4c-0.3-0.3-0.5-0.8-0.7-1.6L0.1,2.3C-0.1,1.5,0,1,0.3,0.8
	c0.3-0.2,0.9-0.3,1.6-0.3h4.8c0.6,0,1,0,1.2,0.1c0.2,0,0.5,0.2,0.7,0.4C8.9,1.2,9,1.6,9.1,2.1l8.7,47c0.1,0.3,0.2,0.4,0.4,0.4
	c0.2,0,0.4-0.1,0.4-0.4l8.7-47c0.1-0.5,0.2-0.9,0.5-1.1c0.3-0.3,0.5-0.4,0.7-0.4C28.9,0.5,29.3,0.4,29.8,0.4z M53.9,74.6
	c0,0.8-0.2,1.4-0.5,1.7s-0.9,0.5-1.7,0.5H47c-0.8,0-1.4-0.2-1.7-0.5s-0.5-0.9-0.5-1.7v-72c0-0.8,0.2-1.4,0.5-1.7s0.9-0.5,1.7-0.5
	h4.8c0.8,0,1.4,0.2,1.7,0.5s0.5,0.9,0.5,1.7V74.6z M72.9,20.3v36.6c0,7.9,2.8,11.8,8.3,11.8c4.9,0,7.7-3.2,8.2-9.5
	c0.1-1.2,0.3-1.9,0.5-2.3c0.3-0.4,0.8-0.5,1.6-0.5h4.8c1.6,0,2.3,1.1,2.2,3.2c-0.5,6-2.4,10.5-5.6,13.4c-3.2,2.9-7.1,4.3-11.7,4.3
	c-5,0-9.2-1.7-12.5-5.1c-3.3-3.4-5-8.6-5-15.6V20.7c0-7,1.7-12.3,5-15.6C72,1.7,76.2,0,81.2,0c4.6,0,8.5,1.4,11.7,4.3
	c3.2,2.9,5.1,7.3,5.6,13.4c0.1,2.1-0.6,3.2-2.2,3.2h-4.8c-0.8,0-1.3-0.2-1.6-0.5c-0.3-0.4-0.5-1.1-0.5-2.3c-0.5-6.3-3.2-9.5-8.2-9.5
	C75.7,8.5,72.9,12.4,72.9,20.3z M104.1,2.6c0-0.8,0.2-1.4,0.5-1.7c0.3-0.3,0.9-0.5,1.7-0.5h28.3c0.8,0,1.4,0.2,1.7,0.5
	s0.5,0.9,0.5,1.7v4.1c0,0.8-0.2,1.4-0.5,1.7s-0.9,0.5-1.7,0.5h-7.4c-1.1,0-1.7,0.1-1.9,0.3c-0.2,0.2-0.3,0.8-0.3,1.9v63.5
	c0,0.8-0.2,1.4-0.5,1.7s-0.9,0.5-1.7,0.5H118c-0.8,0-1.4-0.2-1.7-0.5s-0.5-0.9-0.5-1.7V11.1c0-1.1-0.1-1.7-0.3-1.9
	c-0.2-0.2-0.8-0.3-1.8-0.3h-7.5c-0.8,0-1.4-0.2-1.7-0.5c-0.3-0.3-0.5-0.9-0.5-1.7V2.6z M177.7,20.7v35.8c0,7.1-1.7,12.3-5,15.6
	c-3.3,3.4-7.5,5.1-12.5,5.1c-5,0-9.2-1.7-12.5-5.1c-3.3-3.4-5-8.6-5-15.6V20.7c0-7,1.7-12.3,5-15.6c3.3-3.4,7.5-5.1,12.5-5.1
	c5,0,9.2,1.7,12.5,5.1C176,8.5,177.7,13.7,177.7,20.7z M152,20.3v36.6c0,7.9,2.8,11.8,8.3,11.8c5.5,0,8.3-3.9,8.3-11.8V20.3
	c0-7.9-2.8-11.8-8.3-11.8C154.7,8.5,152,12.4,152,20.3z M189.7,0.4h13.1c5,0,9.2,1.7,12.5,5.1c3.3,3.4,5,8.6,5,15.6v2.9
	c0,8.3-2.4,14.1-7.2,17.6l0.1,0.3c0.9,4.5,3.1,15.3,6.5,32.5c0.4,1.5-0.1,2.3-1.3,2.3h-5.1c-0.6,0-1,0-1.2-0.1
	c-0.2,0-0.5-0.2-0.7-0.4c-0.3-0.3-0.4-0.6-0.5-1.1l-5.9-29.3c-0.1-0.7-0.6-1-1.3-1h-4.8c-1.1,0-1.7,0.1-1.9,0.3
	c-0.2,0.2-0.3,0.8-0.3,1.9v27.6c0,1.5-0.7,2.2-2.2,2.2h-4.8c-0.9,0-1.5-0.2-1.7-0.5c-0.3-0.3-0.4-0.9-0.4-1.7v-72
	c0-0.8,0.2-1.4,0.5-1.7S188.9,0.4,189.7,0.4z M196.7,34c0,1.2,0.1,1.8,0.3,2c0.2,0.2,0.8,0.3,1.9,0.3h3.9c5.5,0,8.3-3.9,8.3-11.8
	v-3.8c0-7.9-2.8-11.8-8.3-11.8h-3.9c-1.1,0-1.7,0.1-1.9,0.3c-0.2,0.2-0.3,0.8-0.3,1.9V34z M34.9,125.6v35.8c0,7.1-1.7,12.3-5,15.6
	c-3.3,3.4-7.5,5.1-12.5,5.1c-5,0-9.2-1.7-12.5-5.1c-3.3-3.4-5-8.6-5-15.6v-35.8c0-7,1.7-12.3,5-15.6c3.3-3.4,7.5-5.1,12.5-5.1
	c5,0,9.2,1.7,12.5,5.1C33.2,113.3,34.9,118.5,34.9,125.6z M9.2,125.1v36.6c0,7.9,2.8,11.8,8.3,11.8c5.5,0,8.3-3.9,8.3-11.8v-36.6
	c0-7.9-2.8-11.8-8.3-11.8C11.9,113.4,9.2,117.3,9.2,125.1z M46.9,181.6c-0.8,0-1.4-0.2-1.7-0.5c-0.3-0.3-0.5-0.9-0.5-1.7v-72
	c0-0.8,0.2-1.4,0.5-1.7s0.9-0.5,1.7-0.5h4.8c0.8,0,1.4,0.2,1.7,0.5s0.5,0.9,0.5,1.7v63.3c0,1.2,0.1,1.8,0.3,2c0.2,0.2,0.9,0.3,2,0.3
	h13.7c0.8,0,1.4,0.2,1.7,0.5c0.3,0.3,0.5,0.9,0.5,1.7v4.1c0,0.8-0.2,1.4-0.5,1.7c-0.3,0.3-0.9,0.5-1.7,0.5H46.9z M113,125.6v35.8
	c0,7.1-1.7,12.3-5,15.6c-3.3,3.4-7.5,5.1-12.5,5.1c-5,0-9.2-1.7-12.5-5.1c-3.3-3.4-5-8.6-5-15.6v-35.8c0-7,1.7-12.3,5-15.6
	c3.3-3.4,7.5-5.1,12.5-5.1c5,0,9.2,1.7,12.5,5.1C111.3,113.3,113,118.5,113,125.6z M87.2,125.1v36.6c0,7.9,2.8,11.8,8.3,11.8
	c5.5,0,8.3-3.9,8.3-11.8v-36.6c0-7.9-2.8-11.8-8.3-11.8C90,113.4,87.2,117.3,87.2,125.1z M156.6,125.6v35.8c0,7.1-1.7,12.3-5,15.6
	c-3.3,3.4-7.5,5.1-12.5,5.1s-9.2-1.7-12.5-5.1c-3.3-3.4-5-8.6-5-15.6v-35.8c0-7,1.7-12.3,5-15.6c3.3-3.4,7.5-5.1,12.5-5.1
	s9.2,1.7,12.5,5.1C154.9,113.3,156.6,118.5,156.6,125.6z M130.8,125.1v36.6c0,7.9,2.8,11.8,8.3,11.8c5.5,0,8.3-3.9,8.3-11.8v-36.6
	c0-7.9-2.8-11.8-8.3-11.8C133.6,113.4,130.8,117.3,130.8,125.1z"/>
</svg>
