<?xml version="1.0" encoding="utf-8"?>
<!-- Generator: Adobe Illustrator 22.0.1, SVG Export Plug-In . SVG Version: 6.00 Build 0)  -->
<svg version="1.1" id="Layer_1" xmlns="http://www.w3.org/2000/svg" xmlns:xlink="http://www.w3.org/1999/xlink" x="0px" y="0px"
	 viewBox="0 0 220.2 182.1" style="enable-background:new 0 0 220.2 182.1;" xml:space="preserve">
<path d="M29.8,0.4h4.8c0.5,0,0.9,0,1.1,0.1c0.2,0,0.4,0.2,0.6,0.5c0.2,0.3,0.2,0.7,0.2,1.3L22.7,74.8c-0.1,0.8-0.4,1.3-0.7,1.6
	c-0.3,0.3-0.9,0.4-1.7,0.4h-4.1c-0.9,0-1.5-0.1-1.7-0.4c-0.3-0.3-0.5-0.8-0.7-1.6L0.1,2.3C-0.1,1.5,0,1,0.3,0.8s0.9-0.3,1.6-0.3h4.8
	c0.6,0,1,0,1.2,0.1c0.2,0,0.5,0.2,0.7,0.4C8.9,1.2,9,1.6,9.1,2.1l8.7,47c0.1,0.3,0.2,0.4,0.4,0.4c0.2,0,0.4-0.1,0.4-0.4l8.7-47
	c0.1-0.5,0.2-0.9,0.5-1.1c0.3-0.3,0.5-0.4,0.7-0.4C28.9,0.5,29.3,0.4,29.8,0.4z M53.9,74.6c0,0.8-0.2,1.4-0.5,1.7s-0.9,0.5-1.7,0.5
	H47c-0.8,0-1.4-0.2-1.7-0.5s-0.5-0.9-0.5-1.7v-72c0-0.8,0.2-1.4,0.5-1.7s0.9-0.5,1.7-0.5h4.8c0.8,0,1.4,0.2,1.7,0.5S54,1.8,54,2.6
	L53.9,74.6L53.9,74.6z M72.9,20.3v36.6c0,7.9,2.8,11.8,8.3,11.8c4.9,0,7.7-3.2,8.2-9.5c0.1-1.2,0.3-1.9,0.5-2.3
	c0.3-0.4,0.8-0.5,1.6-0.5h4.8c1.6,0,2.3,1.1,2.2,3.2c-0.5,6-2.4,10.5-5.6,13.4s-7.1,4.3-11.7,4.3c-5,0-9.2-1.7-12.5-5.1
	s-5-8.6-5-15.6V20.7c0-7,1.7-12.3,5-15.6C72,1.7,76.2,0,81.2,0c4.6,0,8.5,1.4,11.7,4.3s5.1,7.3,5.6,13.4c0.1,2.1-0.6,3.2-2.2,3.2
	h-4.8c-0.8,0-1.3-0.2-1.6-0.5c-0.3-0.4-0.5-1.1-0.5-2.3c-0.5-6.3-3.2-9.5-8.2-9.5C75.7,8.5,72.9,12.4,72.9,20.3z M104.1,2.6
	c0-0.8,0.2-1.4,0.5-1.7s0.9-0.5,1.7-0.5h28.3c0.8,0,1.4,0.2,1.7,0.5s0.5,0.9,0.5,1.7v4.1c0,0.8-0.2,1.4-0.5,1.7s-0.9,0.5-1.7,0.5
	h-7.4c-1.1,0-1.7,0.1-1.9,0.3c-0.2,0.2-0.3,0.8-0.3,1.9v63.5c0,0.8-0.2,1.4-0.5,1.7s-0.9,0.5-1.7,0.5H118c-0.8,0-1.4-0.2-1.7-0.5
	s-0.5-0.9-0.5-1.7V11.1c0-1.1-0.1-1.7-0.3-1.9c-0.2-0.2-0.8-0.3-1.8-0.3h-7.5c-0.8,0-1.4-0.2-1.7-0.5c-0.3-0.3-0.5-0.9-0.5-1.7
	L104.1,2.6L104.1,2.6z M177.7,20.7v35.8c0,7.1-1.7,12.3-5,15.6c-3.3,3.4-7.5,5.1-12.5,5.1s-9.2-1.7-12.5-5.1s-5-8.6-5-15.6V20.7
	c0-7,1.7-12.3,5-15.6C151,1.7,155.2,0,160.2,0s9.2,1.7,12.5,5.1S177.7,13.7,177.7,20.7z M152,20.3v36.6c0,7.9,2.8,11.8,8.3,11.8
	s8.3-3.9,8.3-11.8V20.3c0-7.9-2.8-11.8-8.3-11.8C154.7,8.5,152,12.4,152,20.3z M189.7,0.4h13.1c5,0,9.2,1.7,12.5,5.1s5,8.6,5,15.6
	V24c0,8.3-2.4,14.1-7.2,17.6l0.1,0.3c0.9,4.5,3.1,15.3,6.5,32.5c0.4,1.5-0.1,2.3-1.3,2.3h-5.1c-0.6,0-1,0-1.2-0.1
	c-0.2,0-0.5-0.2-0.7-0.4c-0.3-0.3-0.4-0.6-0.5-1.1L205,45.8c-0.1-0.7-0.6-1-1.3-1h-4.8c-1.1,0-1.7,0.1-1.9,0.3s-0.3,0.8-0.3,1.9
	v27.6c0,1.5-0.7,2.2-2.2,2.2h-4.8c-0.9,0-1.5-0.2-1.7-0.5c-0.3-0.3-0.4-0.9-0.4-1.7v-72c0-0.8,0.2-1.4,0.5-1.7S188.9,0.4,189.7,0.4z
	 M196.7,34c0,1.2,0.1,1.8,0.3,2s0.8,0.3,1.9,0.3h3.9c5.5,0,8.3-3.9,8.3-11.8v-3.8c0-7.9-2.8-11.8-8.3-11.8h-3.9
	c-1.1,0-1.7,0.1-1.9,0.3s-0.3,0.8-0.3,1.9V34z"/>
<path d="M61.7,110c-3.3-3.4-7.5-5.1-12.5-5.1s-9.2,1.7-12.5,5.1c-3.3,3.3-5,8.6-5,15.6v35.8c0,7,1.7,12.2,5,15.6
	c3.3,3.4,7.5,5.1,12.5,5.1s9.2-1.7,12.5-5.1c3.3-3.3,5-8.5,5-15.6v-35.8C66.7,118.5,65,113.3,61.7,110z M57.6,161.7
	c0,7.9-2.8,11.8-8.3,11.8s-8.3-3.9-8.3-11.8v-36.6c0-7.8,2.7-11.7,8.3-11.8c5.5,0,8.3,3.9,8.3,11.8V161.7z M78.7,181.6
	c-0.8,0-1.4-0.2-1.7-0.5c-0.3-0.3-0.5-0.9-0.5-1.7v-72c0-0.8,0.2-1.4,0.5-1.7c0.3-0.3,0.9-0.5,1.7-0.5h4.8c0.8,0,1.4,0.2,1.7,0.5
	s0.5,0.9,0.5,1.7v63.3c0,1.2,0.1,1.8,0.3,2c0.2,0.2,0.9,0.3,2,0.3h13.7c0.8,0,1.4,0.2,1.7,0.5c0.3,0.3,0.5,0.9,0.5,1.7v4.1
	c0,0.8-0.2,1.4-0.5,1.7s-0.9,0.5-1.7,0.5L78.7,181.6L78.7,181.6z M139.8,110c-3.3-3.4-7.5-5.1-12.5-5.1c-5,0-9.2,1.7-12.5,5.1
	c-3.3,3.3-5,8.6-5,15.6v35.8c0,7,1.7,12.2,5,15.6c3.3,3.4,7.5,5.1,12.5,5.1c5,0,9.2-1.7,12.5-5.1c3.3-3.3,5-8.5,5-15.6v-35.8
	C144.8,118.5,143.1,113.3,139.8,110z M135.6,161.7c0,7.9-2.8,11.8-8.3,11.8c-5.5,0-8.3-3.9-8.3-11.8v-36.6c0-7.8,2.8-11.7,8.3-11.8
	c5.5,0,8.3,3.9,8.3,11.8V161.7z M183.5,110c-3.3-3.4-7.5-5.1-12.5-5.1s-9.2,1.7-12.5,5.1c-3.3,3.3-5,8.6-5,15.6v35.8
	c0,7,1.7,12.2,5,15.6c3.3,3.4,7.5,5.1,12.5,5.1s9.2-1.7,12.5-5.1c3.3-3.3,5-8.5,5-15.6v-35.8C188.5,118.5,186.8,113.3,183.5,110z
	 M179.2,161.7c0,7.9-2.8,11.8-8.3,11.8s-8.3-3.9-8.3-11.8v-36.6c0-7.8,2.8-11.7,8.3-11.8c5.5,0,8.3,3.9,8.3,11.8V161.7z"/>
</svg>
